<mxfile host="app.diagrams.net" agent="Mozilla/5.0 (Windows NT 10.0; Win64; x64) AppleWebKit/537.36 (KHTML, like Gecko) Chrome/133.0.0.0 Safari/537.36 OPR/118.0.0.0" version="26.2.14">
  <diagram name="PÃ¡gina-1" id="TWB_zopq4VFuq0G7hh2m">
    <mxGraphModel dx="1842" dy="793" grid="1" gridSize="10" guides="1" tooltips="1" connect="1" arrows="1" fold="1" page="1" pageScale="1" pageWidth="827" pageHeight="1169" math="0" shadow="0">
      <root>
        <mxCell id="0" />
        <mxCell id="1" parent="0" />
        <mxCell id="0s2YtGOZ6xPDURW5VYJ3-1" value="&lt;&lt;interface&gt;&gt;&#xa;Boundable" style="swimlane;fontStyle=1;align=center;verticalAlign=top;childLayout=stackLayout;horizontal=1;startSize=62.25;horizontalStack=0;resizeParent=1;resizeParentMax=0;resizeLast=0;collapsible=0;marginBottom=0;" parent="1" vertex="1">
          <mxGeometry x="293" y="2464" width="186" height="154.25" as="geometry" />
        </mxCell>
        <mxCell id="0s2YtGOZ6xPDURW5VYJ3-2" style="line;strokeWidth=1;fillColor=none;align=left;verticalAlign=middle;spacingTop=-1;spacingLeft=3;spacingRight=3;rotatable=0;labelPosition=right;points=[];portConstraint=eastwest;strokeColor=inherit;" parent="0s2YtGOZ6xPDURW5VYJ3-1" vertex="1">
          <mxGeometry y="62.25" width="186" height="8" as="geometry" />
        </mxCell>
        <mxCell id="0s2YtGOZ6xPDURW5VYJ3-3" value="+int getBoundX()" style="text;strokeColor=none;fillColor=none;align=left;verticalAlign=top;spacingLeft=4;spacingRight=4;overflow=hidden;rotatable=0;points=[[0,0.5],[1,0.5]];portConstraint=eastwest;" parent="0s2YtGOZ6xPDURW5VYJ3-1" vertex="1">
          <mxGeometry y="70.25" width="186" height="42" as="geometry" />
        </mxCell>
        <mxCell id="0s2YtGOZ6xPDURW5VYJ3-4" value="+int getBoundY()" style="text;strokeColor=none;fillColor=none;align=left;verticalAlign=top;spacingLeft=4;spacingRight=4;overflow=hidden;rotatable=0;points=[[0,0.5],[1,0.5]];portConstraint=eastwest;" parent="0s2YtGOZ6xPDURW5VYJ3-1" vertex="1">
          <mxGeometry y="112.25" width="186" height="42" as="geometry" />
        </mxCell>
        <mxCell id="0s2YtGOZ6xPDURW5VYJ3-5" value="Pulga" style="swimlane;fontStyle=1;align=center;verticalAlign=top;childLayout=stackLayout;horizontal=1;startSize=28.266666666666666;horizontalStack=0;resizeParent=1;resizeParentMax=0;resizeLast=0;collapsible=0;marginBottom=0;" parent="1" vertex="1">
          <mxGeometry x="445" y="1640" width="300" height="428.26666666666665" as="geometry" />
        </mxCell>
        <mxCell id="0s2YtGOZ6xPDURW5VYJ3-6" value="-int x" style="text;strokeColor=none;fillColor=none;align=left;verticalAlign=top;spacingLeft=4;spacingRight=4;overflow=hidden;rotatable=0;points=[[0,0.5],[1,0.5]];portConstraint=eastwest;" parent="0s2YtGOZ6xPDURW5VYJ3-5" vertex="1">
          <mxGeometry y="28.266666666666666" width="300" height="28" as="geometry" />
        </mxCell>
        <mxCell id="0s2YtGOZ6xPDURW5VYJ3-7" value="-int y" style="text;strokeColor=none;fillColor=none;align=left;verticalAlign=top;spacingLeft=4;spacingRight=4;overflow=hidden;rotatable=0;points=[[0,0.5],[1,0.5]];portConstraint=eastwest;" parent="0s2YtGOZ6xPDURW5VYJ3-5" vertex="1">
          <mxGeometry y="56.266666666666666" width="300" height="28" as="geometry" />
        </mxCell>
        <mxCell id="0s2YtGOZ6xPDURW5VYJ3-8" value="-ReproductorDolor voz" style="text;strokeColor=none;fillColor=none;align=left;verticalAlign=top;spacingLeft=4;spacingRight=4;overflow=hidden;rotatable=0;points=[[0,0.5],[1,0.5]];portConstraint=eastwest;" parent="0s2YtGOZ6xPDURW5VYJ3-5" vertex="1">
          <mxGeometry y="84.26666666666667" width="300" height="28" as="geometry" />
        </mxCell>
        <mxCell id="0s2YtGOZ6xPDURW5VYJ3-9" value="+static int ANCHO" style="text;strokeColor=none;fillColor=none;align=left;verticalAlign=top;spacingLeft=4;spacingRight=4;overflow=hidden;rotatable=0;points=[[0,0.5],[1,0.5]];portConstraint=eastwest;" parent="0s2YtGOZ6xPDURW5VYJ3-5" vertex="1">
          <mxGeometry y="112.26666666666667" width="300" height="28" as="geometry" />
        </mxCell>
        <mxCell id="0s2YtGOZ6xPDURW5VYJ3-10" value="+static int ALTO" style="text;strokeColor=none;fillColor=none;align=left;verticalAlign=top;spacingLeft=4;spacingRight=4;overflow=hidden;rotatable=0;points=[[0,0.5],[1,0.5]];portConstraint=eastwest;" parent="0s2YtGOZ6xPDURW5VYJ3-5" vertex="1">
          <mxGeometry y="140.26666666666665" width="300" height="28" as="geometry" />
        </mxCell>
        <mxCell id="0s2YtGOZ6xPDURW5VYJ3-11" value="+static int NO_IMPACTO" style="text;strokeColor=none;fillColor=none;align=left;verticalAlign=top;spacingLeft=4;spacingRight=4;overflow=hidden;rotatable=0;points=[[0,0.5],[1,0.5]];portConstraint=eastwest;" parent="0s2YtGOZ6xPDURW5VYJ3-5" vertex="1">
          <mxGeometry y="168.26666666666665" width="300" height="28" as="geometry" />
        </mxCell>
        <mxCell id="0s2YtGOZ6xPDURW5VYJ3-12" value="+static int IMPACTO" style="text;strokeColor=none;fillColor=none;align=left;verticalAlign=top;spacingLeft=4;spacingRight=4;overflow=hidden;rotatable=0;points=[[0,0.5],[1,0.5]];portConstraint=eastwest;" parent="0s2YtGOZ6xPDURW5VYJ3-5" vertex="1">
          <mxGeometry y="196.26666666666665" width="300" height="28" as="geometry" />
        </mxCell>
        <mxCell id="0s2YtGOZ6xPDURW5VYJ3-13" style="line;strokeWidth=1;fillColor=none;align=left;verticalAlign=middle;spacingTop=-1;spacingLeft=3;spacingRight=3;rotatable=0;labelPosition=right;points=[];portConstraint=eastwest;strokeColor=inherit;" parent="0s2YtGOZ6xPDURW5VYJ3-5" vertex="1">
          <mxGeometry y="224.26666666666665" width="300" height="8" as="geometry" />
        </mxCell>
        <mxCell id="0s2YtGOZ6xPDURW5VYJ3-14" value="+Pulga(int x, int y)" style="text;strokeColor=none;fillColor=none;align=left;verticalAlign=top;spacingLeft=4;spacingRight=4;overflow=hidden;rotatable=0;points=[[0,0.5],[1,0.5]];portConstraint=eastwest;" parent="0s2YtGOZ6xPDURW5VYJ3-5" vertex="1">
          <mxGeometry y="232.26666666666665" width="300" height="28" as="geometry" />
        </mxCell>
        <mxCell id="0s2YtGOZ6xPDURW5VYJ3-15" value="+void saltar(int xMax, int yMax)" style="text;strokeColor=none;fillColor=none;align=left;verticalAlign=top;spacingLeft=4;spacingRight=4;overflow=hidden;rotatable=0;points=[[0,0.5],[1,0.5]];portConstraint=eastwest;" parent="0s2YtGOZ6xPDURW5VYJ3-5" vertex="1">
          <mxGeometry y="260.26666666666665" width="300" height="28" as="geometry" />
        </mxCell>
        <mxCell id="0s2YtGOZ6xPDURW5VYJ3-16" value="+int verificarImpacto(int dx, int dy)" style="text;strokeColor=none;fillColor=none;align=left;verticalAlign=top;spacingLeft=4;spacingRight=4;overflow=hidden;rotatable=0;points=[[0,0.5],[1,0.5]];portConstraint=eastwest;" parent="0s2YtGOZ6xPDURW5VYJ3-5" vertex="1">
          <mxGeometry y="288.26666666666665" width="300" height="28" as="geometry" />
        </mxCell>
        <mxCell id="0s2YtGOZ6xPDURW5VYJ3-17" value="+void dibujar(Graphics g)" style="text;strokeColor=none;fillColor=none;align=left;verticalAlign=top;spacingLeft=4;spacingRight=4;overflow=hidden;rotatable=0;points=[[0,0.5],[1,0.5]];portConstraint=eastwest;" parent="0s2YtGOZ6xPDURW5VYJ3-5" vertex="1">
          <mxGeometry y="316.26666666666665" width="300" height="28" as="geometry" />
        </mxCell>
        <mxCell id="0s2YtGOZ6xPDURW5VYJ3-18" value="+void gritar()" style="text;strokeColor=none;fillColor=none;align=left;verticalAlign=top;spacingLeft=4;spacingRight=4;overflow=hidden;rotatable=0;points=[[0,0.5],[1,0.5]];portConstraint=eastwest;" parent="0s2YtGOZ6xPDURW5VYJ3-5" vertex="1">
          <mxGeometry y="344.26666666666665" width="300" height="28" as="geometry" />
        </mxCell>
        <mxCell id="0s2YtGOZ6xPDURW5VYJ3-19" value="+int getX()" style="text;strokeColor=none;fillColor=none;align=left;verticalAlign=top;spacingLeft=4;spacingRight=4;overflow=hidden;rotatable=0;points=[[0,0.5],[1,0.5]];portConstraint=eastwest;" parent="0s2YtGOZ6xPDURW5VYJ3-5" vertex="1">
          <mxGeometry y="372.26666666666665" width="300" height="28" as="geometry" />
        </mxCell>
        <mxCell id="0s2YtGOZ6xPDURW5VYJ3-20" value="+int getY()" style="text;strokeColor=none;fillColor=none;align=left;verticalAlign=top;spacingLeft=4;spacingRight=4;overflow=hidden;rotatable=0;points=[[0,0.5],[1,0.5]];portConstraint=eastwest;" parent="0s2YtGOZ6xPDURW5VYJ3-5" vertex="1">
          <mxGeometry y="400.26666666666665" width="300" height="28" as="geometry" />
        </mxCell>
        <mxCell id="0s2YtGOZ6xPDURW5VYJ3-21" value="PulgaMutante" style="swimlane;fontStyle=1;align=center;verticalAlign=top;childLayout=stackLayout;horizontal=1;startSize=34.666666666666664;horizontalStack=0;resizeParent=1;resizeParentMax=0;resizeLast=0;collapsible=0;marginBottom=0;" parent="1" vertex="1">
          <mxGeometry x="20" y="2150" width="331" height="217.66666666666666" as="geometry" />
        </mxCell>
        <mxCell id="0s2YtGOZ6xPDURW5VYJ3-22" value="+static int IMPACTO_MUTANTE" style="text;strokeColor=none;fillColor=none;align=left;verticalAlign=top;spacingLeft=4;spacingRight=4;overflow=hidden;rotatable=0;points=[[0,0.5],[1,0.5]];portConstraint=eastwest;" parent="0s2YtGOZ6xPDURW5VYJ3-21" vertex="1">
          <mxGeometry y="34.666666666666664" width="331" height="35" as="geometry" />
        </mxCell>
        <mxCell id="0s2YtGOZ6xPDURW5VYJ3-23" style="line;strokeWidth=1;fillColor=none;align=left;verticalAlign=middle;spacingTop=-1;spacingLeft=3;spacingRight=3;rotatable=0;labelPosition=right;points=[];portConstraint=eastwest;strokeColor=inherit;" parent="0s2YtGOZ6xPDURW5VYJ3-21" vertex="1">
          <mxGeometry y="69.66666666666666" width="331" height="8" as="geometry" />
        </mxCell>
        <mxCell id="0s2YtGOZ6xPDURW5VYJ3-24" value="+PulgaMutante(int x, int y)" style="text;strokeColor=none;fillColor=none;align=left;verticalAlign=top;spacingLeft=4;spacingRight=4;overflow=hidden;rotatable=0;points=[[0,0.5],[1,0.5]];portConstraint=eastwest;" parent="0s2YtGOZ6xPDURW5VYJ3-21" vertex="1">
          <mxGeometry y="77.66666666666666" width="331" height="35" as="geometry" />
        </mxCell>
        <mxCell id="0s2YtGOZ6xPDURW5VYJ3-25" value="+int verificarImpacto(int dx, int dy)" style="text;strokeColor=none;fillColor=none;align=left;verticalAlign=top;spacingLeft=4;spacingRight=4;overflow=hidden;rotatable=0;points=[[0,0.5],[1,0.5]];portConstraint=eastwest;" parent="0s2YtGOZ6xPDURW5VYJ3-21" vertex="1">
          <mxGeometry y="112.66666666666666" width="331" height="35" as="geometry" />
        </mxCell>
        <mxCell id="0s2YtGOZ6xPDURW5VYJ3-26" value="+void dibujar(Graphics g)" style="text;strokeColor=none;fillColor=none;align=left;verticalAlign=top;spacingLeft=4;spacingRight=4;overflow=hidden;rotatable=0;points=[[0,0.5],[1,0.5]];portConstraint=eastwest;" parent="0s2YtGOZ6xPDURW5VYJ3-21" vertex="1">
          <mxGeometry y="147.66666666666666" width="331" height="35" as="geometry" />
        </mxCell>
        <mxCell id="0s2YtGOZ6xPDURW5VYJ3-27" value="+void gritar()" style="text;strokeColor=none;fillColor=none;align=left;verticalAlign=top;spacingLeft=4;spacingRight=4;overflow=hidden;rotatable=0;points=[[0,0.5],[1,0.5]];portConstraint=eastwest;" parent="0s2YtGOZ6xPDURW5VYJ3-21" vertex="1">
          <mxGeometry y="182.66666666666666" width="331" height="35" as="geometry" />
        </mxCell>
        <mxCell id="0s2YtGOZ6xPDURW5VYJ3-28" value="PulgaFantasma" style="swimlane;fontStyle=1;align=center;verticalAlign=top;childLayout=stackLayout;horizontal=1;startSize=30.4;horizontalStack=0;resizeParent=1;resizeParentMax=0;resizeLast=0;collapsible=0;marginBottom=0;" parent="1" vertex="1">
          <mxGeometry x="819" y="2102" width="415" height="308.4" as="geometry" />
        </mxCell>
        <mxCell id="0s2YtGOZ6xPDURW5VYJ3-29" value="+static int IMPACTO_FANTASMA" style="text;strokeColor=none;fillColor=none;align=left;verticalAlign=top;spacingLeft=4;spacingRight=4;overflow=hidden;rotatable=0;points=[[0,0.5],[1,0.5]];portConstraint=eastwest;" parent="0s2YtGOZ6xPDURW5VYJ3-28" vertex="1">
          <mxGeometry y="30.4" width="415" height="30" as="geometry" />
        </mxCell>
        <mxCell id="0s2YtGOZ6xPDURW5VYJ3-30" value="-Boundable bound" style="text;strokeColor=none;fillColor=none;align=left;verticalAlign=top;spacingLeft=4;spacingRight=4;overflow=hidden;rotatable=0;points=[[0,0.5],[1,0.5]];portConstraint=eastwest;" parent="0s2YtGOZ6xPDURW5VYJ3-28" vertex="1">
          <mxGeometry y="60.4" width="415" height="30" as="geometry" />
        </mxCell>
        <mxCell id="0s2YtGOZ6xPDURW5VYJ3-31" value="-int velocidadX" style="text;strokeColor=none;fillColor=none;align=left;verticalAlign=top;spacingLeft=4;spacingRight=4;overflow=hidden;rotatable=0;points=[[0,0.5],[1,0.5]];portConstraint=eastwest;" parent="0s2YtGOZ6xPDURW5VYJ3-28" vertex="1">
          <mxGeometry y="90.4" width="415" height="30" as="geometry" />
        </mxCell>
        <mxCell id="0s2YtGOZ6xPDURW5VYJ3-32" value="-int velocidadY" style="text;strokeColor=none;fillColor=none;align=left;verticalAlign=top;spacingLeft=4;spacingRight=4;overflow=hidden;rotatable=0;points=[[0,0.5],[1,0.5]];portConstraint=eastwest;" parent="0s2YtGOZ6xPDURW5VYJ3-28" vertex="1">
          <mxGeometry y="120.4" width="415" height="30" as="geometry" />
        </mxCell>
        <mxCell id="0s2YtGOZ6xPDURW5VYJ3-33" value="-boolean ejecutar" style="text;strokeColor=none;fillColor=none;align=left;verticalAlign=top;spacingLeft=4;spacingRight=4;overflow=hidden;rotatable=0;points=[[0,0.5],[1,0.5]];portConstraint=eastwest;" parent="0s2YtGOZ6xPDURW5VYJ3-28" vertex="1">
          <mxGeometry y="150.4" width="415" height="30" as="geometry" />
        </mxCell>
        <mxCell id="0s2YtGOZ6xPDURW5VYJ3-34" style="line;strokeWidth=1;fillColor=none;align=left;verticalAlign=middle;spacingTop=-1;spacingLeft=3;spacingRight=3;rotatable=0;labelPosition=right;points=[];portConstraint=eastwest;strokeColor=inherit;" parent="0s2YtGOZ6xPDURW5VYJ3-28" vertex="1">
          <mxGeometry y="180.4" width="415" height="8" as="geometry" />
        </mxCell>
        <mxCell id="0s2YtGOZ6xPDURW5VYJ3-35" value="+PulgaFantasma(int x, int y, Boundable bound)" style="text;strokeColor=none;fillColor=none;align=left;verticalAlign=top;spacingLeft=4;spacingRight=4;overflow=hidden;rotatable=0;points=[[0,0.5],[1,0.5]];portConstraint=eastwest;" parent="0s2YtGOZ6xPDURW5VYJ3-28" vertex="1">
          <mxGeometry y="188.4" width="415" height="30" as="geometry" />
        </mxCell>
        <mxCell id="0s2YtGOZ6xPDURW5VYJ3-36" value="+int verificarImpacto(int dx, int dy)" style="text;strokeColor=none;fillColor=none;align=left;verticalAlign=top;spacingLeft=4;spacingRight=4;overflow=hidden;rotatable=0;points=[[0,0.5],[1,0.5]];portConstraint=eastwest;" parent="0s2YtGOZ6xPDURW5VYJ3-28" vertex="1">
          <mxGeometry y="218.4" width="415" height="30" as="geometry" />
        </mxCell>
        <mxCell id="0s2YtGOZ6xPDURW5VYJ3-37" value="+void dibujar(Graphics g)" style="text;strokeColor=none;fillColor=none;align=left;verticalAlign=top;spacingLeft=4;spacingRight=4;overflow=hidden;rotatable=0;points=[[0,0.5],[1,0.5]];portConstraint=eastwest;" parent="0s2YtGOZ6xPDURW5VYJ3-28" vertex="1">
          <mxGeometry y="248.4" width="415" height="30" as="geometry" />
        </mxCell>
        <mxCell id="0s2YtGOZ6xPDURW5VYJ3-38" value="+void run()" style="text;strokeColor=none;fillColor=none;align=left;verticalAlign=top;spacingLeft=4;spacingRight=4;overflow=hidden;rotatable=0;points=[[0,0.5],[1,0.5]];portConstraint=eastwest;" parent="0s2YtGOZ6xPDURW5VYJ3-28" vertex="1">
          <mxGeometry y="278.4" width="415" height="30" as="geometry" />
        </mxCell>
        <mxCell id="0s2YtGOZ6xPDURW5VYJ3-39" value="CampoBatalla" style="swimlane;fontStyle=1;align=center;verticalAlign=top;childLayout=stackLayout;horizontal=1;startSize=28;horizontalStack=0;resizeParent=1;resizeParentMax=0;resizeLast=0;collapsible=0;marginBottom=0;" parent="1" vertex="1">
          <mxGeometry x="170" y="1160" width="369" height="456" as="geometry" />
        </mxCell>
        <mxCell id="0s2YtGOZ6xPDURW5VYJ3-40" value="-int ancho" style="text;strokeColor=none;fillColor=none;align=left;verticalAlign=top;spacingLeft=4;spacingRight=4;overflow=hidden;rotatable=0;points=[[0,0.5],[1,0.5]];portConstraint=eastwest;" parent="0s2YtGOZ6xPDURW5VYJ3-39" vertex="1">
          <mxGeometry y="28" width="369" height="28" as="geometry" />
        </mxCell>
        <mxCell id="0s2YtGOZ6xPDURW5VYJ3-41" value="-int alto" style="text;strokeColor=none;fillColor=none;align=left;verticalAlign=top;spacingLeft=4;spacingRight=4;overflow=hidden;rotatable=0;points=[[0,0.5],[1,0.5]];portConstraint=eastwest;" parent="0s2YtGOZ6xPDURW5VYJ3-39" vertex="1">
          <mxGeometry y="56" width="369" height="28" as="geometry" />
        </mxCell>
        <mxCell id="0s2YtGOZ6xPDURW5VYJ3-42" value="-ArrayList&lt;Pulga&gt; pulgas" style="text;strokeColor=none;fillColor=none;align=left;verticalAlign=top;spacingLeft=4;spacingRight=4;overflow=hidden;rotatable=0;points=[[0,0.5],[1,0.5]];portConstraint=eastwest;" parent="0s2YtGOZ6xPDURW5VYJ3-39" vertex="1">
          <mxGeometry y="84" width="369" height="28" as="geometry" />
        </mxCell>
        <mxCell id="0s2YtGOZ6xPDURW5VYJ3-43" value="+static int CONST_MARGEN_X" style="text;strokeColor=none;fillColor=none;align=left;verticalAlign=top;spacingLeft=4;spacingRight=4;overflow=hidden;rotatable=0;points=[[0,0.5],[1,0.5]];portConstraint=eastwest;" parent="0s2YtGOZ6xPDURW5VYJ3-39" vertex="1">
          <mxGeometry y="112" width="369" height="28" as="geometry" />
        </mxCell>
        <mxCell id="0s2YtGOZ6xPDURW5VYJ3-44" value="+static int CONST_MARGEN_Y" style="text;strokeColor=none;fillColor=none;align=left;verticalAlign=top;spacingLeft=4;spacingRight=4;overflow=hidden;rotatable=0;points=[[0,0.5],[1,0.5]];portConstraint=eastwest;" parent="0s2YtGOZ6xPDURW5VYJ3-39" vertex="1">
          <mxGeometry y="140" width="369" height="28" as="geometry" />
        </mxCell>
        <mxCell id="0s2YtGOZ6xPDURW5VYJ3-45" style="line;strokeWidth=1;fillColor=none;align=left;verticalAlign=middle;spacingTop=-1;spacingLeft=3;spacingRight=3;rotatable=0;labelPosition=right;points=[];portConstraint=eastwest;strokeColor=inherit;" parent="0s2YtGOZ6xPDURW5VYJ3-39" vertex="1">
          <mxGeometry y="168" width="369" height="8" as="geometry" />
        </mxCell>
        <mxCell id="0s2YtGOZ6xPDURW5VYJ3-46" value="+CampoBatalla(int ancho, int alto)" style="text;strokeColor=none;fillColor=none;align=left;verticalAlign=top;spacingLeft=4;spacingRight=4;overflow=hidden;rotatable=0;points=[[0,0.5],[1,0.5]];portConstraint=eastwest;" parent="0s2YtGOZ6xPDURW5VYJ3-39" vertex="1">
          <mxGeometry y="176" width="369" height="28" as="geometry" />
        </mxCell>
        <mxCell id="0s2YtGOZ6xPDURW5VYJ3-47" value="+void agregarPulga(int opc)" style="text;strokeColor=none;fillColor=none;align=left;verticalAlign=top;spacingLeft=4;spacingRight=4;overflow=hidden;rotatable=0;points=[[0,0.5],[1,0.5]];portConstraint=eastwest;" parent="0s2YtGOZ6xPDURW5VYJ3-39" vertex="1">
          <mxGeometry y="204" width="369" height="28" as="geometry" />
        </mxCell>
        <mxCell id="0s2YtGOZ6xPDURW5VYJ3-48" value="+void saltarPulgas()" style="text;strokeColor=none;fillColor=none;align=left;verticalAlign=top;spacingLeft=4;spacingRight=4;overflow=hidden;rotatable=0;points=[[0,0.5],[1,0.5]];portConstraint=eastwest;" parent="0s2YtGOZ6xPDURW5VYJ3-39" vertex="1">
          <mxGeometry y="232" width="369" height="28" as="geometry" />
        </mxCell>
        <mxCell id="0s2YtGOZ6xPDURW5VYJ3-49" value="+boolean dispararPulguipium(int x, int y)" style="text;strokeColor=none;fillColor=none;align=left;verticalAlign=top;spacingLeft=4;spacingRight=4;overflow=hidden;rotatable=0;points=[[0,0.5],[1,0.5]];portConstraint=eastwest;" parent="0s2YtGOZ6xPDURW5VYJ3-39" vertex="1">
          <mxGeometry y="260" width="369" height="28" as="geometry" />
        </mxCell>
        <mxCell id="0s2YtGOZ6xPDURW5VYJ3-50" value="+int lanzarPulgoson()" style="text;strokeColor=none;fillColor=none;align=left;verticalAlign=top;spacingLeft=4;spacingRight=4;overflow=hidden;rotatable=0;points=[[0,0.5],[1,0.5]];portConstraint=eastwest;" parent="0s2YtGOZ6xPDURW5VYJ3-39" vertex="1">
          <mxGeometry y="288" width="369" height="28" as="geometry" />
        </mxCell>
        <mxCell id="0s2YtGOZ6xPDURW5VYJ3-51" value="+boolean quedanPulgas()" style="text;strokeColor=none;fillColor=none;align=left;verticalAlign=top;spacingLeft=4;spacingRight=4;overflow=hidden;rotatable=0;points=[[0,0.5],[1,0.5]];portConstraint=eastwest;" parent="0s2YtGOZ6xPDURW5VYJ3-39" vertex="1">
          <mxGeometry y="316" width="369" height="28" as="geometry" />
        </mxCell>
        <mxCell id="0s2YtGOZ6xPDURW5VYJ3-52" value="+void dibujar(Graphics g)" style="text;strokeColor=none;fillColor=none;align=left;verticalAlign=top;spacingLeft=4;spacingRight=4;overflow=hidden;rotatable=0;points=[[0,0.5],[1,0.5]];portConstraint=eastwest;" parent="0s2YtGOZ6xPDURW5VYJ3-39" vertex="1">
          <mxGeometry y="344" width="369" height="28" as="geometry" />
        </mxCell>
        <mxCell id="0s2YtGOZ6xPDURW5VYJ3-53" value="+int getCantidadPulgas()" style="text;strokeColor=none;fillColor=none;align=left;verticalAlign=top;spacingLeft=4;spacingRight=4;overflow=hidden;rotatable=0;points=[[0,0.5],[1,0.5]];portConstraint=eastwest;" parent="0s2YtGOZ6xPDURW5VYJ3-39" vertex="1">
          <mxGeometry y="372" width="369" height="28" as="geometry" />
        </mxCell>
        <mxCell id="0s2YtGOZ6xPDURW5VYJ3-54" value="+int getBoundX()" style="text;strokeColor=none;fillColor=none;align=left;verticalAlign=top;spacingLeft=4;spacingRight=4;overflow=hidden;rotatable=0;points=[[0,0.5],[1,0.5]];portConstraint=eastwest;" parent="0s2YtGOZ6xPDURW5VYJ3-39" vertex="1">
          <mxGeometry y="400" width="369" height="28" as="geometry" />
        </mxCell>
        <mxCell id="0s2YtGOZ6xPDURW5VYJ3-55" value="+int getBoundY()" style="text;strokeColor=none;fillColor=none;align=left;verticalAlign=top;spacingLeft=4;spacingRight=4;overflow=hidden;rotatable=0;points=[[0,0.5],[1,0.5]];portConstraint=eastwest;" parent="0s2YtGOZ6xPDURW5VYJ3-39" vertex="1">
          <mxGeometry y="428" width="369" height="28" as="geometry" />
        </mxCell>
        <mxCell id="0s2YtGOZ6xPDURW5VYJ3-56" value="Simulador" style="swimlane;fontStyle=1;align=center;verticalAlign=top;childLayout=stackLayout;horizontal=1;startSize=28.923076923076923;horizontalStack=0;resizeParent=1;resizeParentMax=0;resizeLast=0;collapsible=0;marginBottom=0;" parent="1" vertex="1">
          <mxGeometry x="590" y="930" width="283" height="384.9230769230769" as="geometry" />
        </mxCell>
        <mxCell id="0s2YtGOZ6xPDURW5VYJ3-57" value="-int puntaje" style="text;strokeColor=none;fillColor=none;align=left;verticalAlign=top;spacingLeft=4;spacingRight=4;overflow=hidden;rotatable=0;points=[[0,0.5],[1,0.5]];portConstraint=eastwest;" parent="0s2YtGOZ6xPDURW5VYJ3-56" vertex="1">
          <mxGeometry y="28.923076923076923" width="283" height="29" as="geometry" />
        </mxCell>
        <mxCell id="0s2YtGOZ6xPDURW5VYJ3-58" value="-int anchoCampo" style="text;strokeColor=none;fillColor=none;align=left;verticalAlign=top;spacingLeft=4;spacingRight=4;overflow=hidden;rotatable=0;points=[[0,0.5],[1,0.5]];portConstraint=eastwest;" parent="0s2YtGOZ6xPDURW5VYJ3-56" vertex="1">
          <mxGeometry y="57.92307692307692" width="283" height="29" as="geometry" />
        </mxCell>
        <mxCell id="0s2YtGOZ6xPDURW5VYJ3-59" value="-int altoCampo" style="text;strokeColor=none;fillColor=none;align=left;verticalAlign=top;spacingLeft=4;spacingRight=4;overflow=hidden;rotatable=0;points=[[0,0.5],[1,0.5]];portConstraint=eastwest;" parent="0s2YtGOZ6xPDURW5VYJ3-56" vertex="1">
          <mxGeometry y="86.92307692307692" width="283" height="29" as="geometry" />
        </mxCell>
        <mxCell id="0s2YtGOZ6xPDURW5VYJ3-60" value="-CampoBatalla campo" style="text;strokeColor=none;fillColor=none;align=left;verticalAlign=top;spacingLeft=4;spacingRight=4;overflow=hidden;rotatable=0;points=[[0,0.5],[1,0.5]];portConstraint=eastwest;" parent="0s2YtGOZ6xPDURW5VYJ3-56" vertex="1">
          <mxGeometry y="115.92307692307692" width="283" height="29" as="geometry" />
        </mxCell>
        <mxCell id="0s2YtGOZ6xPDURW5VYJ3-61" value="-ReproductorMusica repMusic" style="text;strokeColor=none;fillColor=none;align=left;verticalAlign=top;spacingLeft=4;spacingRight=4;overflow=hidden;rotatable=0;points=[[0,0.5],[1,0.5]];portConstraint=eastwest;" parent="0s2YtGOZ6xPDURW5VYJ3-56" vertex="1">
          <mxGeometry y="144.9230769230769" width="283" height="29" as="geometry" />
        </mxCell>
        <mxCell id="0s2YtGOZ6xPDURW5VYJ3-62" style="line;strokeWidth=1;fillColor=none;align=left;verticalAlign=middle;spacingTop=-1;spacingLeft=3;spacingRight=3;rotatable=0;labelPosition=right;points=[];portConstraint=eastwest;strokeColor=inherit;" parent="0s2YtGOZ6xPDURW5VYJ3-56" vertex="1">
          <mxGeometry y="173.9230769230769" width="283" height="8" as="geometry" />
        </mxCell>
        <mxCell id="0s2YtGOZ6xPDURW5VYJ3-63" value="+Simulador(int ancho, int alto)" style="text;strokeColor=none;fillColor=none;align=left;verticalAlign=top;spacingLeft=4;spacingRight=4;overflow=hidden;rotatable=0;points=[[0,0.5],[1,0.5]];portConstraint=eastwest;" parent="0s2YtGOZ6xPDURW5VYJ3-56" vertex="1">
          <mxGeometry y="181.9230769230769" width="283" height="29" as="geometry" />
        </mxCell>
        <mxCell id="0s2YtGOZ6xPDURW5VYJ3-64" value="+void gestionarPulgas(int opc)" style="text;strokeColor=none;fillColor=none;align=left;verticalAlign=top;spacingLeft=4;spacingRight=4;overflow=hidden;rotatable=0;points=[[0,0.5],[1,0.5]];portConstraint=eastwest;" parent="0s2YtGOZ6xPDURW5VYJ3-56" vertex="1">
          <mxGeometry y="210.9230769230769" width="283" height="29" as="geometry" />
        </mxCell>
        <mxCell id="0s2YtGOZ6xPDURW5VYJ3-65" value="+boolean disparar(int x, int y)" style="text;strokeColor=none;fillColor=none;align=left;verticalAlign=top;spacingLeft=4;spacingRight=4;overflow=hidden;rotatable=0;points=[[0,0.5],[1,0.5]];portConstraint=eastwest;" parent="0s2YtGOZ6xPDURW5VYJ3-56" vertex="1">
          <mxGeometry y="239.9230769230769" width="283" height="29" as="geometry" />
        </mxCell>
        <mxCell id="0s2YtGOZ6xPDURW5VYJ3-66" value="+boolean lanzarBomba()" style="text;strokeColor=none;fillColor=none;align=left;verticalAlign=top;spacingLeft=4;spacingRight=4;overflow=hidden;rotatable=0;points=[[0,0.5],[1,0.5]];portConstraint=eastwest;" parent="0s2YtGOZ6xPDURW5VYJ3-56" vertex="1">
          <mxGeometry y="268.9230769230769" width="283" height="29" as="geometry" />
        </mxCell>
        <mxCell id="0s2YtGOZ6xPDURW5VYJ3-67" value="+void reiniciarPartida()" style="text;strokeColor=none;fillColor=none;align=left;verticalAlign=top;spacingLeft=4;spacingRight=4;overflow=hidden;rotatable=0;points=[[0,0.5],[1,0.5]];portConstraint=eastwest;" parent="0s2YtGOZ6xPDURW5VYJ3-56" vertex="1">
          <mxGeometry y="297.9230769230769" width="283" height="29" as="geometry" />
        </mxCell>
        <mxCell id="0s2YtGOZ6xPDURW5VYJ3-68" value="+void dibujar(Graphics g)" style="text;strokeColor=none;fillColor=none;align=left;verticalAlign=top;spacingLeft=4;spacingRight=4;overflow=hidden;rotatable=0;points=[[0,0.5],[1,0.5]];portConstraint=eastwest;" parent="0s2YtGOZ6xPDURW5VYJ3-56" vertex="1">
          <mxGeometry y="326.9230769230769" width="283" height="29" as="geometry" />
        </mxCell>
        <mxCell id="0s2YtGOZ6xPDURW5VYJ3-69" value="+int getPuntaje()" style="text;strokeColor=none;fillColor=none;align=left;verticalAlign=top;spacingLeft=4;spacingRight=4;overflow=hidden;rotatable=0;points=[[0,0.5],[1,0.5]];portConstraint=eastwest;" parent="0s2YtGOZ6xPDURW5VYJ3-56" vertex="1">
          <mxGeometry y="355.9230769230769" width="283" height="29" as="geometry" />
        </mxCell>
        <mxCell id="0s2YtGOZ6xPDURW5VYJ3-70" value="ReproductorMusica" style="swimlane;fontStyle=1;align=center;verticalAlign=top;childLayout=stackLayout;horizontal=1;startSize=34.54545454545455;horizontalStack=0;resizeParent=1;resizeParentMax=0;resizeLast=0;collapsible=0;marginBottom=0;" parent="1" vertex="1">
          <mxGeometry x="880" y="1390" width="426" height="182.54545454545456" as="geometry" />
        </mxCell>
        <mxCell id="0s2YtGOZ6xPDURW5VYJ3-71" style="line;strokeWidth=1;fillColor=none;align=left;verticalAlign=middle;spacingTop=-1;spacingLeft=3;spacingRight=3;rotatable=0;labelPosition=right;points=[];portConstraint=eastwest;strokeColor=inherit;" parent="0s2YtGOZ6xPDURW5VYJ3-70" vertex="1">
          <mxGeometry y="34.54545454545455" width="426" height="8" as="geometry" />
        </mxCell>
        <mxCell id="0s2YtGOZ6xPDURW5VYJ3-72" value="+boolean comprobarRepeticionReproduccion()" style="text;strokeColor=none;fillColor=none;align=left;verticalAlign=top;spacingLeft=4;spacingRight=4;overflow=hidden;rotatable=0;points=[[0,0.5],[1,0.5]];portConstraint=eastwest;" parent="0s2YtGOZ6xPDURW5VYJ3-70" vertex="1">
          <mxGeometry y="42.54545454545455" width="426" height="35" as="geometry" />
        </mxCell>
        <mxCell id="0s2YtGOZ6xPDURW5VYJ3-73" value="+void reproducirMusica()" style="text;strokeColor=none;fillColor=none;align=left;verticalAlign=top;spacingLeft=4;spacingRight=4;overflow=hidden;rotatable=0;points=[[0,0.5],[1,0.5]];portConstraint=eastwest;" parent="0s2YtGOZ6xPDURW5VYJ3-70" vertex="1">
          <mxGeometry y="77.54545454545455" width="426" height="35" as="geometry" />
        </mxCell>
        <mxCell id="0s2YtGOZ6xPDURW5VYJ3-74" value="+void detenerMusica()" style="text;strokeColor=none;fillColor=none;align=left;verticalAlign=top;spacingLeft=4;spacingRight=4;overflow=hidden;rotatable=0;points=[[0,0.5],[1,0.5]];portConstraint=eastwest;" parent="0s2YtGOZ6xPDURW5VYJ3-70" vertex="1">
          <mxGeometry y="112.54545454545455" width="426" height="35" as="geometry" />
        </mxCell>
        <mxCell id="0s2YtGOZ6xPDURW5VYJ3-75" value="+void reiniciarRepeticionReproduccion()" style="text;strokeColor=none;fillColor=none;align=left;verticalAlign=top;spacingLeft=4;spacingRight=4;overflow=hidden;rotatable=0;points=[[0,0.5],[1,0.5]];portConstraint=eastwest;" parent="0s2YtGOZ6xPDURW5VYJ3-70" vertex="1">
          <mxGeometry y="147.54545454545456" width="426" height="35" as="geometry" />
        </mxCell>
        <mxCell id="0s2YtGOZ6xPDURW5VYJ3-76" value="ReproductorDolor" style="swimlane;fontStyle=1;align=center;verticalAlign=top;childLayout=stackLayout;horizontal=1;startSize=47.2;horizontalStack=0;resizeParent=1;resizeParentMax=0;resizeLast=0;collapsible=0;marginBottom=0;" parent="1" vertex="1">
          <mxGeometry x="421" y="2195" width="348" height="102.2" as="geometry" />
        </mxCell>
        <mxCell id="0s2YtGOZ6xPDURW5VYJ3-77" style="line;strokeWidth=1;fillColor=none;align=left;verticalAlign=middle;spacingTop=-1;spacingLeft=3;spacingRight=3;rotatable=0;labelPosition=right;points=[];portConstraint=eastwest;strokeColor=inherit;" parent="0s2YtGOZ6xPDURW5VYJ3-76" vertex="1">
          <mxGeometry y="47.2" width="348" height="8" as="geometry" />
        </mxCell>
        <mxCell id="0s2YtGOZ6xPDURW5VYJ3-78" value="+void reproducirDolor(boolean tipo)" style="text;strokeColor=none;fillColor=none;align=left;verticalAlign=top;spacingLeft=4;spacingRight=4;overflow=hidden;rotatable=0;points=[[0,0.5],[1,0.5]];portConstraint=eastwest;" parent="0s2YtGOZ6xPDURW5VYJ3-76" vertex="1">
          <mxGeometry y="55.2" width="348" height="47" as="geometry" />
        </mxCell>
        <mxCell id="0s2YtGOZ6xPDURW5VYJ3-79" value="Runnable" style="swimlane;fontStyle=1;align=center;verticalAlign=top;childLayout=stackLayout;horizontal=1;startSize=38;horizontalStack=0;resizeParent=1;resizeParentMax=0;resizeLast=0;collapsible=0;marginBottom=0;" parent="1" vertex="1">
          <mxGeometry x="991" y="2509" width="94" height="57" as="geometry" />
        </mxCell>
        <mxCell id="0s2YtGOZ6xPDURW5VYJ3-80" style="line;strokeWidth=1;fillColor=none;align=left;verticalAlign=middle;spacingTop=-1;spacingLeft=3;spacingRight=3;rotatable=0;labelPosition=right;points=[];portConstraint=eastwest;strokeColor=inherit;" parent="0s2YtGOZ6xPDURW5VYJ3-79" vertex="1">
          <mxGeometry y="38" width="94" height="19" as="geometry" />
        </mxCell>
        <mxCell id="0s2YtGOZ6xPDURW5VYJ3-81" value="" style="curved=1;startArrow=block;startSize=16;startFill=0;endArrow=none;exitX=0;exitY=0.7;entryX=0.5;entryY=0;rounded=0;" parent="1" source="0s2YtGOZ6xPDURW5VYJ3-5" target="0s2YtGOZ6xPDURW5VYJ3-21" edge="1">
          <mxGeometry relative="1" as="geometry">
            <Array as="points">
              <mxPoint x="185" y="2077" />
            </Array>
          </mxGeometry>
        </mxCell>
        <mxCell id="0s2YtGOZ6xPDURW5VYJ3-82" value="" style="curved=1;startArrow=block;startSize=16;startFill=0;endArrow=none;exitX=1;exitY=0.69;entryX=0.5;entryY=0;rounded=0;" parent="1" source="0s2YtGOZ6xPDURW5VYJ3-5" target="0s2YtGOZ6xPDURW5VYJ3-28" edge="1">
          <mxGeometry relative="1" as="geometry">
            <Array as="points">
              <mxPoint x="1027" y="2077" />
            </Array>
          </mxGeometry>
        </mxCell>
        <mxCell id="0s2YtGOZ6xPDURW5VYJ3-83" value="" style="curved=1;dashed=1;startArrow=none;endArrow=block;endSize=16;endFill=0;exitX=0.52;exitY=1;entryX=0.5;entryY=0;rounded=0;" parent="1" source="0s2YtGOZ6xPDURW5VYJ3-28" target="0s2YtGOZ6xPDURW5VYJ3-79" edge="1">
          <mxGeometry relative="1" as="geometry">
            <Array as="points">
              <mxPoint x="1038" y="2439" />
            </Array>
          </mxGeometry>
        </mxCell>
        <mxCell id="0s2YtGOZ6xPDURW5VYJ3-84" value="" style="curved=1;startArrow=none;endArrow=none;exitX=0.49;exitY=1;entryX=0.5;entryY=0;rounded=0;" parent="1" source="0s2YtGOZ6xPDURW5VYJ3-5" target="0s2YtGOZ6xPDURW5VYJ3-76" edge="1">
          <mxGeometry relative="1" as="geometry">
            <Array as="points">
              <mxPoint x="595" y="2077" />
            </Array>
          </mxGeometry>
        </mxCell>
        <mxCell id="0s2YtGOZ6xPDURW5VYJ3-85" value="" style="curved=1;dashed=1;startArrow=none;endArrow=block;endSize=16;endFill=0;exitX=0.24;exitY=1;entryX=0.5;entryY=0;rounded=0;" parent="1" source="0s2YtGOZ6xPDURW5VYJ3-39" target="0s2YtGOZ6xPDURW5VYJ3-1" edge="1">
          <mxGeometry relative="1" as="geometry">
            <Array as="points">
              <mxPoint x="386" y="1595" />
            </Array>
          </mxGeometry>
        </mxCell>
        <mxCell id="0s2YtGOZ6xPDURW5VYJ3-86" value="" style="curved=1;startArrow=none;endArrow=open;endSize=12;exitX=0.75;exitY=1;entryX=0.5;entryY=0;rounded=0;" parent="1" source="0s2YtGOZ6xPDURW5VYJ3-39" target="0s2YtGOZ6xPDURW5VYJ3-5" edge="1">
          <mxGeometry relative="1" as="geometry">
            <Array as="points">
              <mxPoint x="597" y="1595" />
            </Array>
          </mxGeometry>
        </mxCell>
        <mxCell id="0s2YtGOZ6xPDURW5VYJ3-87" value="1" style="edgeLabel;resizable=0;labelBackgroundColor=none;fontSize=12;align=right;verticalAlign=top;" parent="0s2YtGOZ6xPDURW5VYJ3-86" vertex="1">
          <mxGeometry x="-1" relative="1" as="geometry" />
        </mxCell>
        <mxCell id="0s2YtGOZ6xPDURW5VYJ3-88" value="many" style="edgeLabel;resizable=0;labelBackgroundColor=none;fontSize=12;align=left;verticalAlign=bottom;" parent="0s2YtGOZ6xPDURW5VYJ3-86" vertex="1">
          <mxGeometry x="1" relative="1" as="geometry" />
        </mxCell>
        <mxCell id="0s2YtGOZ6xPDURW5VYJ3-89" value="" style="curved=1;startArrow=none;endArrow=open;endSize=12;exitX=-0.012;exitY=0.034;entryX=0.5;entryY=0;rounded=0;exitDx=0;exitDy=0;exitPerimeter=0;" parent="1" source="0s2YtGOZ6xPDURW5VYJ3-59" target="0s2YtGOZ6xPDURW5VYJ3-39" edge="1">
          <mxGeometry relative="1" as="geometry">
            <Array as="points">
              <mxPoint x="492" y="1089" />
            </Array>
          </mxGeometry>
        </mxCell>
        <mxCell id="0s2YtGOZ6xPDURW5VYJ3-90" value="" style="curved=1;startArrow=none;endArrow=open;endSize=12;exitX=1;exitY=0.86;entryX=0.5;entryY=0;rounded=0;" parent="1" source="0s2YtGOZ6xPDURW5VYJ3-56" target="0s2YtGOZ6xPDURW5VYJ3-70" edge="1">
          <mxGeometry relative="1" as="geometry">
            <Array as="points">
              <mxPoint x="940" y="1089" />
            </Array>
          </mxGeometry>
        </mxCell>
        <mxCell id="0s2YtGOZ6xPDURW5VYJ3-91" value="" style="curved=1;startArrow=none;endArrow=open;endSize=12;exitX=0;exitY=0.89;entryX=1;entryY=0.32;rounded=0;" parent="1" source="0s2YtGOZ6xPDURW5VYJ3-28" target="0s2YtGOZ6xPDURW5VYJ3-1" edge="1">
          <mxGeometry relative="1" as="geometry">
            <Array as="points">
              <mxPoint x="718" y="2439" />
            </Array>
          </mxGeometry>
        </mxCell>
      </root>
    </mxGraphModel>
  </diagram>
</mxfile>
